<svg width="512" height="512" viewBox="0 0 512 512" fill="none" xmlns="http://www.w3.org/2000/svg">
<rect x="9" y="9" width="494" height="494" rx="23" fill="black" stroke="white" stroke-width="18"/>
<path d="M374.548 128.004C372.173 128.077 369.919 129.104 368.264 130.868L322.557 178.165C320.843 179.939 319.881 182.345 319.881 184.853C319.881 187.361 320.843 189.767 322.557 191.541L368.264 238.838C369.106 239.746 370.115 240.471 371.231 240.97C372.348 241.469 373.549 241.733 374.765 241.745C375.981 241.758 377.188 241.52 378.314 241.044C379.44 240.568 380.462 239.865 381.322 238.975C382.182 238.085 382.862 237.027 383.322 235.861C383.781 234.696 384.012 233.448 384 232.19C383.987 230.931 383.732 229.688 383.25 228.533C382.768 227.378 382.067 226.334 381.19 225.462L341.947 184.853L381.19 144.244C382.511 142.915 383.413 141.205 383.779 139.336C384.144 137.468 383.955 135.529 383.237 133.773C382.519 132.018 381.305 130.528 379.755 129.498C378.205 128.469 376.39 127.948 374.548 128.004Z" fill="white"/>
<path d="M329.019 228.961C327.197 228.957 325.415 229.518 323.903 230.57C322.39 231.622 321.216 233.117 320.531 234.865C319.846 236.612 319.681 238.531 320.058 240.376C320.435 242.221 321.335 243.908 322.645 245.219L361.888 285.828L322.645 326.437C321.796 327.316 321.122 328.36 320.663 329.509C320.204 330.658 319.968 331.889 319.968 333.132C319.969 334.375 320.206 335.606 320.667 336.754C321.127 337.903 321.802 338.946 322.652 339.824C323.502 340.703 324.511 341.399 325.621 341.874C326.732 342.349 327.921 342.593 329.123 342.592C330.324 342.591 331.514 342.345 332.623 341.868C333.733 341.391 334.741 340.693 335.589 339.813L381.296 292.516C383.009 290.742 383.972 288.336 383.972 285.828C383.972 283.32 383.009 280.914 381.296 279.14L335.589 231.843C334.737 230.931 333.716 230.206 332.587 229.711C331.458 229.216 330.245 228.961 329.019 228.961Z" fill="white"/>
<path d="M137.141 156.973C132.093 156.973 128.001 161.208 128 166.432V317.783C128.001 323.007 132.093 327.242 137.141 327.242H246.855V365.08H192.132C186.979 365.004 182.786 369.338 182.866 374.613C182.948 379.888 187.09 384.07 192.132 383.999H319.843C332.205 384.179 332.205 364.899 319.843 365.08H265.138V327.242H292.437C297.485 327.242 301.578 323.007 301.578 317.783C301.578 312.559 297.485 308.323 292.437 308.323H146.283V175.892H292.455C294.879 175.892 297.204 174.895 298.918 173.121C300.633 171.347 301.596 168.941 301.596 166.432C301.596 163.924 300.633 161.517 298.918 159.743C297.204 157.97 294.879 156.973 292.455 156.973H137.141Z" fill="white"/>
</svg>
